<?xml version="1.0"?>
<svg xmlns="http://www.w3.org/2000/svg" xmlns:xlink="http://www.w3.org/1999/xlink" xmlns:svgjs="http://svgjs.com/svgjs" version="1.1" width="512" height="512" x="0" y="0" viewBox="0 0 512 512" style="enable-background:new 0 0 512 512" xml:space="preserve" class=""><g>
<circle xmlns="http://www.w3.org/2000/svg" style="" cx="256" cy="256" r="256" fill="#ffa600" data-original="#ea8953" class=""/>
<path xmlns="http://www.w3.org/2000/svg" style="" d="M512,256c0-12.859-0.976-25.493-2.805-37.845l-107.2-107.163l-0.533-0.587  c-0.693-0.64-1.653-1.067-2.667-1.067h-80.64c-2.133,0-3.84,1.707-3.84,3.787v12.533l-15.253-15.2  c-0.693-0.693-1.653-1.12-2.72-1.12h-80.693c-2.08,0-3.84,1.707-3.84,3.787v12.587l-14.773-14.72l-0.533-0.587  c-0.693-0.64-1.6-1.067-2.667-1.067h-80.64c-2.133,0-3.84,1.707-3.84,3.787v285.707c0,0.96,0.373,1.867,0.907,2.507l0.213,0.213  l107.637,107.637C230.48,511.024,243.125,512,256,512C397.387,512,512,397.387,512,256z" fill="#ff7e00" data-original="#000000" class=""/>
<path xmlns="http://www.w3.org/2000/svg" style="" d="M193.84,120h-80.656c-2.128,0-3.851,1.707-3.851,3.813v275.045c0,2.107,1.723,3.813,3.851,3.813  h80.661c2.128,0,3.851-1.707,3.851-3.813V123.813C197.691,121.707,195.968,120,193.84,120z" fill="#2b3944" data-original="#f6c358" class=""/>
<path xmlns="http://www.w3.org/2000/svg" style="" d="M296.331,120h-80.661c-2.128,0-3.851,1.707-3.851,3.813v275.045c0,2.107,1.723,3.813,3.851,3.813  h80.661c2.128,0,3.851-1.707,3.851-3.813V123.813C300.176,121.707,298.453,120,296.331,120z" fill="#2b3944" data-original="#3ea69b" class=""/>
<path xmlns="http://www.w3.org/2000/svg" style="" d="M398.816,120H318.16c-2.128,0-3.851,1.707-3.851,3.813v275.045c0,2.107,1.723,3.813,3.851,3.813  h80.661c2.128,0,3.851-1.707,3.851-3.813V123.813C402.667,121.707,400.944,120,398.816,120z" fill="#2b3944" data-original="#2d93ba" class=""/>
<path xmlns="http://www.w3.org/2000/svg" style="" d="M193.84,109.333h-80.656c-2.128,0-3.851,1.707-3.851,3.813v275.045c0,2.107,1.723,3.813,3.851,3.813  h80.661c2.128,0,3.851-1.707,3.851-3.813V113.147C197.691,111.04,195.968,109.333,193.84,109.333z" fill="#2b3944" data-original="#fcd462" class=""/>
<rect xmlns="http://www.w3.org/2000/svg" x="125.333" y="125.333" style="" width="56.352" height="107.307" fill="#ffffff" data-original="#ffffff" class=""/>
<rect xmlns="http://www.w3.org/2000/svg" x="125.333" y="226.027" style="" width="56.352" height="6.624" fill="#ebf0f3" data-original="#ebf0f3" class=""/>
<path xmlns="http://www.w3.org/2000/svg" style="" d="M296.331,109.333h-80.661c-2.128,0-3.851,1.707-3.851,3.813v275.045c0,2.107,1.723,3.813,3.851,3.813  h80.661c2.128,0,3.851-1.707,3.851-3.813V113.147C300.176,111.04,298.453,109.333,296.331,109.333z" fill="#2b3944" data-original="#44c4a1" class=""/>
<path xmlns="http://www.w3.org/2000/svg" style="" d="M398.816,109.333H318.16c-2.128,0-3.851,1.707-3.851,3.813v275.045c0,2.107,1.723,3.813,3.851,3.813  h80.661c2.128,0,3.851-1.707,3.851-3.813V113.147C402.667,111.04,400.944,109.333,398.816,109.333z" fill="#2b3944" data-original="#27a2db" class=""/>
<rect xmlns="http://www.w3.org/2000/svg" x="227.824" y="125.333" style="" width="56.352" height="107.307" fill="#ffffff" data-original="#ffffff" class=""/>
<rect xmlns="http://www.w3.org/2000/svg" x="227.824" y="226.027" style="" width="56.352" height="6.624" fill="#ebf0f3" data-original="#ebf0f3" class=""/>
<rect xmlns="http://www.w3.org/2000/svg" x="330.309" y="125.333" style="" width="56.352" height="107.307" fill="#ffffff" data-original="#ffffff" class=""/>
<g xmlns="http://www.w3.org/2000/svg">
	<rect x="330.309" y="226.027" style="" width="56.352" height="6.624" fill="#ebf0f3" data-original="#ebf0f3" class=""/>
	<rect x="133.035" y="136.907" style="" width="40.96" height="4" fill="#ebf0f3" data-original="#ebf0f3" class=""/>
	<rect x="133.035" y="152.267" style="" width="40.96" height="4" fill="#ebf0f3" data-original="#ebf0f3" class=""/>
	<rect x="133.035" y="167.627" style="" width="40.96" height="4" fill="#ebf0f3" data-original="#ebf0f3" class=""/>
	<rect x="133.035" y="182.987" style="" width="40.96" height="4" fill="#ebf0f3" data-original="#ebf0f3" class=""/>
	<rect x="133.035" y="198.347" style="" width="40.96" height="4" fill="#ebf0f3" data-original="#ebf0f3" class=""/>
	<rect x="133.035" y="213.707" style="" width="40.96" height="4" fill="#ebf0f3" data-original="#ebf0f3" class=""/>
	<rect x="235.52" y="136.907" style="" width="40.96" height="4" fill="#ebf0f3" data-original="#ebf0f3" class=""/>
	<rect x="235.52" y="152.267" style="" width="40.96" height="4" fill="#ebf0f3" data-original="#ebf0f3" class=""/>
	<rect x="235.52" y="167.627" style="" width="40.96" height="4" fill="#ebf0f3" data-original="#ebf0f3" class=""/>
	<rect x="235.52" y="182.987" style="" width="40.96" height="4" fill="#ebf0f3" data-original="#ebf0f3" class=""/>
	<rect x="235.52" y="198.347" style="" width="40.96" height="4" fill="#ebf0f3" data-original="#ebf0f3" class=""/>
	<rect x="235.52" y="213.707" style="" width="40.96" height="4" fill="#ebf0f3" data-original="#ebf0f3" class=""/>
	<rect x="338.027" y="136.907" style="" width="40.96" height="4" fill="#ebf0f3" data-original="#ebf0f3" class=""/>
	<rect x="338.027" y="152.267" style="" width="40.96" height="4" fill="#ebf0f3" data-original="#ebf0f3" class=""/>
	<rect x="338.027" y="167.627" style="" width="40.96" height="4" fill="#ebf0f3" data-original="#ebf0f3" class=""/>
	<rect x="338.027" y="182.987" style="" width="40.96" height="4" fill="#ebf0f3" data-original="#ebf0f3" class=""/>
	<rect x="338.027" y="198.347" style="" width="40.96" height="4" fill="#ebf0f3" data-original="#ebf0f3" class=""/>
	<rect x="338.027" y="213.707" style="" width="40.96" height="4" fill="#ebf0f3" data-original="#ebf0f3" class=""/>
</g>
<circle xmlns="http://www.w3.org/2000/svg" style="" cx="153.509" cy="353.547" r="18.939" fill="#64798a" data-original="#64798a" class=""/>
<circle xmlns="http://www.w3.org/2000/svg" style="" cx="153.509" cy="353.547" r="15.264" fill="#ffffff" data-original="#ffffff" class=""/>
<circle xmlns="http://www.w3.org/2000/svg" style="" cx="256" cy="353.547" r="18.939" fill="#64798a" data-original="#64798a" class=""/>
<circle xmlns="http://www.w3.org/2000/svg" style="" cx="256" cy="353.547" r="15.264" fill="#ffffff" data-original="#ffffff" class=""/>
<circle xmlns="http://www.w3.org/2000/svg" style="" cx="358.507" cy="353.547" r="18.944" fill="#64798a" data-original="#64798a" class=""/>
<circle xmlns="http://www.w3.org/2000/svg" style="" cx="358.507" cy="353.547" r="15.264" fill="#ffffff" data-original="#ffffff" class=""/>
<g xmlns="http://www.w3.org/2000/svg">
</g>
<g xmlns="http://www.w3.org/2000/svg">
</g>
<g xmlns="http://www.w3.org/2000/svg">
</g>
<g xmlns="http://www.w3.org/2000/svg">
</g>
<g xmlns="http://www.w3.org/2000/svg">
</g>
<g xmlns="http://www.w3.org/2000/svg">
</g>
<g xmlns="http://www.w3.org/2000/svg">
</g>
<g xmlns="http://www.w3.org/2000/svg">
</g>
<g xmlns="http://www.w3.org/2000/svg">
</g>
<g xmlns="http://www.w3.org/2000/svg">
</g>
<g xmlns="http://www.w3.org/2000/svg">
</g>
<g xmlns="http://www.w3.org/2000/svg">
</g>
<g xmlns="http://www.w3.org/2000/svg">
</g>
<g xmlns="http://www.w3.org/2000/svg">
</g>
<g xmlns="http://www.w3.org/2000/svg">
</g>
</g></svg>
