<?xml version="1.0"?>
<svg xmlns="http://www.w3.org/2000/svg" xmlns:xlink="http://www.w3.org/1999/xlink" xmlns:svgjs="http://svgjs.com/svgjs" version="1.1" width="512" height="512" x="0" y="0" viewBox="0 0 512 512" style="enable-background:new 0 0 512 512" xml:space="preserve" class=""><g><path xmlns="http://www.w3.org/2000/svg" d="m512 256c0 141.386719-114.613281 256-256 256s-256-114.613281-256-256 114.613281-256 256-256 256 114.613281 256 256zm0 0" fill="#ffad00" data-original="#ffce00" style="" class=""/><path xmlns="http://www.w3.org/2000/svg" d="m512 256c0-13.65625-1.082031-27.0625-3.140625-40.140625l-120.859375-120.859375-28.070312 39.429688-71.429688-71.429688-179 280.5 61.109375 61.109375-41.109375 34.390625 65.722656 65.722656c19.480469 4.742188 39.832032 7.277344 60.777344 7.277344 141.386719 0 256-114.613281 256-256zm0 0" fill="#ff8d00" data-original="#ffb600" style="" class=""/><path xmlns="http://www.w3.org/2000/svg" d="m223.5 63h65v159h-65zm0 0" fill="#323941" data-original="#2864f0" style="" class=""/><path xmlns="http://www.w3.org/2000/svg" d="m255.761719 63h32.738281v159h-32.738281zm0 0" fill="#303942" data-original="#0053bf" style="" class=""/><path xmlns="http://www.w3.org/2000/svg" d="m194.5 439h-65l45-154h65zm0 0" fill="#323941" data-original="#2864f0" style="" class=""/><path xmlns="http://www.w3.org/2000/svg" d="m317.5 439h65l-45-154h-65zm0 0" fill="#303942" data-original="#0053bf" style="" class=""/><path xmlns="http://www.w3.org/2000/svg" d="m124 95h264v227.101562h-264zm0 0" fill="#ffffff" data-original="#ffffff" style="" class=""/><path xmlns="http://www.w3.org/2000/svg" d="m255.761719 95h132.238281v227.101562h-132.238281zm0 0" fill="#ffffff" data-original="#e9edf5" style="" class=""/><path xmlns="http://www.w3.org/2000/svg" d="m109.5 297.5h293v46h-293zm0 0" fill="#303942" data-original="#0053bf" style="" class=""/><path xmlns="http://www.w3.org/2000/svg" d="m255.761719 297.5h146.738281v46h-146.738281zm0 0" fill="#303942" data-original="#27488f" style="" class=""/><path xmlns="http://www.w3.org/2000/svg" d="m212.25 85h87.5v24h-87.5zm0 0" fill="#303942" data-original="#0053bf" style="" class=""/><path xmlns="http://www.w3.org/2000/svg" d="m255.761719 85h43.988281v24h-43.988281zm0 0" fill="#303942" data-original="#27488f" style="" class=""/><path xmlns="http://www.w3.org/2000/svg" d="m334.550781 208.550781c0-18.289062-18.945312-33.34375-43.285156-35.265625-1.921875-24.335937-16.976563-43.285156-35.265625-43.285156s-33.34375 18.949219-35.265625 43.285156c-24.335937 1.921875-43.285156 16.976563-43.285156 35.265625 0 18.292969 18.949219 33.34375 43.285156 35.265625 1.921875 24.335938 16.976563 43.285156 35.265625 43.285156s33.34375-18.949218 35.265625-43.285156c24.335937-1.921875 43.285156-16.972656 43.285156-35.265625zm0 0" fill="#323941" data-original="#ff551c" style="" class=""/><path xmlns="http://www.w3.org/2000/svg" d="m291.265625 173.285156c-1.921875-24.335937-16.976563-43.285156-35.265625-43.285156-.078125 0-.15625.007812-.238281.007812v157.089844c.082031 0 .160156.007813.238281.007813 18.289062 0 33.34375-18.949219 35.265625-43.285157 24.335937-1.921874 43.285156-16.976562 43.285156-35.265624 0-18.292969-18.949219-33.347657-43.285156-35.269532zm0 0" fill="#303942" data-original="#f24500" style="" class=""/><path xmlns="http://www.w3.org/2000/svg" d="m288.816406 208.550781c0 18.125-14.691406 32.816407-32.816406 32.816407s-32.816406-14.691407-32.816406-32.816407 14.691406-32.816406 32.816406-32.816406 32.816406 14.691406 32.816406 32.816406zm0 0" fill="#323941" data-original="#ff7955" style="" class=""/><path xmlns="http://www.w3.org/2000/svg" d="m256 175.734375c-.078125 0-.15625.003906-.238281.003906v65.625c.082031 0 .160156.003907.238281.003907 18.125 0 32.816406-14.691407 32.816406-32.816407s-14.691406-32.816406-32.816406-32.816406zm0 0" fill="#323941" data-original="#ff551c" style="" class=""/></g></svg>
