<?xml version="1.0"?>
<svg xmlns="http://www.w3.org/2000/svg" xmlns:xlink="http://www.w3.org/1999/xlink" xmlns:svgjs="http://svgjs.com/svgjs" version="1.1" width="512" height="512" x="0" y="0" viewBox="0 0 512 512" style="enable-background:new 0 0 512 512" xml:space="preserve" class=""><g>
<circle xmlns="http://www.w3.org/2000/svg" style="" cx="256" cy="256" r="256" fill="#ffb000" data-original="#ff7473" class=""/>
<path xmlns="http://www.w3.org/2000/svg" style="" d="M512,256c0-6.903-0.282-13.74-0.818-20.505L403,127.313L114.887,379.799L246.91,511.822  c3.018,0.105,6.045,0.178,9.089,0.178C397.385,512,512,397.385,512,256z" fill="#ff9300" data-original="#da1716" class=""/>
<polygon xmlns="http://www.w3.org/2000/svg" style="" points="366.373,127.313 237.687,127.313 226.193,265.7 237.687,384.687 384.687,384.687 " fill="#ffffff" data-original="#d6e6fd" class=""/>
<g xmlns="http://www.w3.org/2000/svg">
	<polygon style="" points="338.903,265.7 237.687,265.7 231.94,274.313 237.687,282.927 338.903,282.927  " fill="#323941" data-original="#6c819f" class=""/>
	<polygon style="" points="338.903,302.327 237.687,302.327 231.94,310.94 237.687,319.553 338.903,319.553  " fill="#323941" data-original="#6c819f" class=""/>
	<polygon style="" points="338.903,338.953 237.687,338.953 231.94,347.567 237.687,356.18 338.903,356.18  " fill="#323941" data-original="#6c819f" class=""/>
	<polygon style="" points="237.687,155.82 226.193,201.06 237.687,246.3 338.36,246.3 338.36,155.82  " fill="#323941" data-original="#6c819f" class=""/>
</g>
<path xmlns="http://www.w3.org/2000/svg" style="" d="M109,127.313c0,0,0,180.254,0,239.062c0,10.114,8.199,18.312,18.313,18.312h110.373V127.313H109z" fill="#ffffff" data-original="#f4f4ff" class=""/>
<g xmlns="http://www.w3.org/2000/svg">
	<path style="" d="M366.373,127.313v239.06c0,10.114,8.199,18.313,18.313,18.313l0,0   c10.114,0,18.313-8.199,18.313-18.313v-239.06L366.373,127.313L366.373,127.313z" fill="#323941" data-original="#a1b8d8" class=""/>
	<rect x="136.47" y="155.82" style="" width="82.36" height="17.227" fill="#323941" data-original="#a1b8d8" class=""/>
	<rect x="136.47" y="192.45" style="" width="82.36" height="17.227" fill="#323941" data-original="#a1b8d8" class=""/>
	<rect x="136.47" y="229.07" style="" width="82.36" height="17.227" fill="#323941" data-original="#a1b8d8" class=""/>
	<rect x="136.47" y="265.7" style="" width="101.22" height="17.227" fill="#323941" data-original="#a1b8d8" class=""/>
	<rect x="136.47" y="302.33" style="" width="101.22" height="17.227" fill="#323941" data-original="#a1b8d8" class=""/>
	<rect x="136.47" y="338.95" style="" width="101.22" height="17.227" fill="#323941" data-original="#a1b8d8" class=""/>
</g>
<g xmlns="http://www.w3.org/2000/svg">
</g>
<g xmlns="http://www.w3.org/2000/svg">
</g>
<g xmlns="http://www.w3.org/2000/svg">
</g>
<g xmlns="http://www.w3.org/2000/svg">
</g>
<g xmlns="http://www.w3.org/2000/svg">
</g>
<g xmlns="http://www.w3.org/2000/svg">
</g>
<g xmlns="http://www.w3.org/2000/svg">
</g>
<g xmlns="http://www.w3.org/2000/svg">
</g>
<g xmlns="http://www.w3.org/2000/svg">
</g>
<g xmlns="http://www.w3.org/2000/svg">
</g>
<g xmlns="http://www.w3.org/2000/svg">
</g>
<g xmlns="http://www.w3.org/2000/svg">
</g>
<g xmlns="http://www.w3.org/2000/svg">
</g>
<g xmlns="http://www.w3.org/2000/svg">
</g>
<g xmlns="http://www.w3.org/2000/svg">
</g>
</g></svg>
