<?xml version="1.0"?>
<svg xmlns="http://www.w3.org/2000/svg" xmlns:xlink="http://www.w3.org/1999/xlink" xmlns:svgjs="http://svgjs.com/svgjs" version="1.1" width="512" height="512" x="0" y="0" viewBox="0 0 512 512" style="enable-background:new 0 0 512 512" xml:space="preserve" class=""><g><g xmlns="http://www.w3.org/2000/svg"><g><g><g><g><g><g><g><circle cx="256" cy="256" fill="#ffb000" r="256" data-original="#7584f2" style="" class=""/></g></g></g></g></g></g></g><path d="m512 256c0-8.023-.369-15.96-1.091-23.795l-113.263-113.262-70.379 74.615-89.837-89.838-117.3 295.065 112.128 112.129c7.818.719 15.737 1.086 23.742 1.086 141.385 0 256-114.615 256-256z" fill="#ff9300" data-original="#4855b7" style="" class=""/><g><g><g><g><g><g><g><path d="m237.43 445.42c-94.358 0-170.85-76.492-170.85-170.85s76.492-170.85 170.85-170.85v170.85z" fill="#323941" data-original="#ffce00" style="" class=""/></g></g></g></g></g></g></g><g><g><g><g><g><g><g><path d="m237.43 274.57-119.956 121.642c30.849 30.424 73.206 49.208 119.956 49.208 43.552 0 83.29-16.305 113.465-43.132l-105.227-127.718z" fill="#323941" data-original="#ffaa00" style="" class=""/></g></g></g></g></g></g></g><g><g><g><g><g><g><g><path d="m408.28 274.57h-170.85l91.365 144.384c47.771-30.292 79.485-83.632 79.485-144.384z" fill="#323941" data-original="#fe6a16" style="" class=""/></g></g></g></g></g></g></g><g><path d="m445.42 237.43c0-94.358-76.492-170.85-170.85-170.85v170.85z" fill="#ffffff" data-original="#ffffff" style="" class=""/></g><g><path d="m395.564 116.81-120.994 120.62h170.85c0-47.084-19.048-89.717-49.856-120.62z" fill="#ffffff" data-original="#e9edf5" style="" class=""/></g></g></g></svg>
