<?xml version="1.0"?>
<svg xmlns="http://www.w3.org/2000/svg" xmlns:xlink="http://www.w3.org/1999/xlink" xmlns:svgjs="http://svgjs.com/svgjs" version="1.1" width="512" height="512" x="0" y="0" viewBox="0 0 512 512" style="enable-background:new 0 0 512 512" xml:space="preserve" class=""><g><g xmlns="http://www.w3.org/2000/svg"><g><g><g><g><g><g><circle cx="256" cy="256" fill="#ffb000" r="256" data-original="#1dd882" style="" class=""/></g></g></g></g></g></g><path d="m512 256c0-20.854-2.494-41.124-7.198-60.531l-85.428-85.428-307.906 72.978 57.336 57.336-50.697 47.772 79.731 79.731-126.598 13.939 122.605 122.605c19.899 4.963 40.719 7.598 62.155 7.598 141.385 0 256-114.615 256-256z" fill="#ff9300" data-original="#06b26b" style="" class=""/><g><g><g><ellipse cx="368.482" cy="260.151" fill="#323941" rx="37.794" ry="37.794" transform="matrix(.707 -.707 .707 .707 -76.029 336.753)" data-original="#faa68e" style="" class=""/></g><g><path d="m296.204 381.797c0-39.918 32.36-72.278 72.278-72.278s72.278 32.36 72.278 72.278z" fill="#323941" data-original="#fdba12" style="" class=""/></g></g><g><g><ellipse cx="143.518" cy="260.151" fill="#323941" rx="37.794" ry="37.794" transform="matrix(.23 -.973 .973 .23 -142.648 340.06)" data-original="#ffcdbe" style="" class=""/></g><g><path d="m71.24 381.797c0-39.918 32.36-72.278 72.278-72.278s72.278 32.36 72.278 72.278z" fill="#323941" data-original="#ffce00" style="" class=""/></g></g></g><g><g><circle cx="256" cy="275.164" fill="#323941" r="44.63" data-original="#ffcdbe" style="" class=""/></g><g><path d="m256 230.533c-.005 0-.009 0-.014 0v89.259h.014c24.648 0 44.63-19.981 44.63-44.63s-19.982-44.629-44.63-44.629z" fill="#323941" data-original="#ffbeaa" style="" class=""/></g><g><path d="m170.649 418.81c0-47.138 38.213-85.351 85.351-85.351s85.351 38.213 85.351 85.351z" fill="#323941" data-original="#ff6c52" style="" class=""/></g><g><path d="m256 333.46c-.005 0-.009 0-.014 0v85.35h85.365c0-47.137-38.213-85.35-85.351-85.35z" fill="#323941" data-original="#ff432e" style="" class=""/></g></g><g><path d="m376.303 86.585h-240.606c-28.309 0-51.258 22.949-51.258 51.258 0 25.151 18.114 46.07 42.007 50.426l17.073 24.313 16.488-23.48h72.643l23.35 33.255 23.351-33.254h74.317l16.488 23.48 17.35-24.709c22.921-5.11 40.055-25.569 40.055-50.03 0-28.309-22.949-51.259-51.258-51.259z" fill="#ffffff" data-original="#ffffff" style="" class=""/></g><g><path d="m376.303 86.585h-120.317v135.751l.014.021 23.351-33.254h74.317l16.488 23.48 17.35-24.709c22.921-5.11 40.055-25.569 40.055-50.03.001-28.309-22.949-51.259-51.258-51.259z" fill="#ffffff" data-original="#e9edf5" style="" class=""/></g><g><circle cx="256" cy="136.224" fill="#323941" r="18.412" data-original="#7e8596" style="" class=""/></g><g><path d="m256 117.812c-.005 0-.009.001-.014.001v36.822h.014c10.168 0 18.412-8.243 18.412-18.412s-8.244-18.411-18.412-18.411z" fill="#323941" data-original="#636978" style="" class=""/></g><g><g><circle cx="175.981" cy="136.224" fill="#323941" r="18.412" data-original="#7e8596" style="" class=""/></g><g><circle cx="336.019" cy="136.224" fill="#323941" r="18.412" data-original="#636978" style="" class=""/></g></g></g></g></svg>
