<?xml version="1.0"?>
<svg xmlns="http://www.w3.org/2000/svg" xmlns:xlink="http://www.w3.org/1999/xlink" xmlns:svgjs="http://svgjs.com/svgjs" version="1.1" width="512" height="512" x="0" y="0" viewBox="0 0 512 512" style="enable-background:new 0 0 512 512" xml:space="preserve" class=""><g><g xmlns="http://www.w3.org/2000/svg"><g><g><g><g><g><g><circle cx="256" cy="256" fill="#ffb000" r="256" data-original="#b5efff" style="" class=""/></g></g></g></g></g></g><path d="m512 256c0-.968-.006-1.935-.016-2.901l-159.597-159.597-142.966-22.791-29.301 43.297 96.961 96.961-172.464 169.534 130.671 130.671c6.832.547 13.74.826 20.712.826 141.385 0 256-114.615 256-256z" fill="#ff9300" data-original="#80dbff" style="" class=""/><g><path d="m366.341 179.51h-220.682c-31.968 0-57.883 25.915-57.883 57.883v100.486c0 34.448 27.926 62.374 62.374 62.374 28.801 0 53.857-19.719 60.627-47.713l10.876-44.972h68.694l10.876 44.972c6.77 27.994 31.826 47.713 60.627 47.713 34.448 0 62.374-27.926 62.374-62.374v-100.486c0-31.968-25.915-57.883-57.883-57.883z" fill="#323941" data-original="#636978" style="" class=""/></g><g><path d="m366.341 179.51h-110.221v128.058h34.227l10.876 44.972c6.77 27.994 31.826 47.713 60.627 47.713 34.448 0 62.374-27.926 62.374-62.375v-100.485c0-31.968-25.915-57.883-57.883-57.883z" fill="#323941" data-original="#414952" style="" class=""/></g><g><g><g><circle cx="128.785" cy="249.665" fill="#ffffff" r="17.194" data-original="#9196aa" style="" class=""/></g><g><circle cx="192.227" cy="249.665" fill="#ffffff" r="17.194" data-original="#9196aa" style="" class=""/></g></g><g><g><circle cx="160.506" cy="217.944" fill="#ffffff" r="17.194" data-original="#9196aa" style="" class=""/></g><g><circle cx="160.506" cy="281.386" fill="#ffffff" r="17.194" data-original="#9196aa" style="" class=""/></g></g></g><g><path d="m380.432 233.301h-13.231v-13.231c0-9.038-7.327-16.364-16.364-16.364-9.038 0-16.364 7.327-16.364 16.364v13.231h-13.231c-9.038 0-16.364 7.327-16.364 16.365 0 9.038 7.327 16.364 16.364 16.364h13.231v13.231c0 9.038 7.327 16.364 16.364 16.364 9.038 0 16.364-7.327 16.364-16.364v-13.231h13.231c9.038 0 16.364-7.327 16.364-16.365.001-9.038-7.326-16.364-16.364-16.364z" fill="#ffffff" data-original="#707789" style="" class=""/></g><g><path d="m331.881 114.008c-20.269-20.268-47.217-31.431-75.881-31.431s-55.612 11.162-75.881 31.431l-20.506-20.506c25.744-25.744 59.979-39.925 96.387-39.925 36.41 0 70.641 14.179 96.387 39.925z" fill="#ffffff" data-original="#fe6a16" style="" class=""/></g><g><path d="m352.387 93.502c-25.717-25.717-59.901-39.892-96.267-39.923v29c28.619.031 55.52 11.189 75.76 31.429z" fill="#ffffff" data-original="#f24500" style="" class=""/></g><g><path d="m288.814 157.075c-8.765-8.765-20.418-13.592-32.814-13.592s-24.049 4.827-32.814 13.592l-20.506-20.506c14.241-14.241 33.179-22.085 53.319-22.085 20.142 0 39.078 7.844 53.32 22.086z" fill="#ffffff" data-original="#fe6a16" style="" class=""/></g><g><path d="m309.32 136.569c-14.214-14.214-33.103-22.052-53.199-22.083v29c12.35.031 23.957 4.853 32.693 13.589z" fill="#ffffff" data-original="#f24500" style="" class=""/></g></g></g></svg>
