<?xml version="1.0"?>
<svg xmlns="http://www.w3.org/2000/svg" xmlns:xlink="http://www.w3.org/1999/xlink" xmlns:svgjs="http://svgjs.com/svgjs" version="1.1" width="512" height="512" x="0" y="0" viewBox="0 0 512 512" style="enable-background:new 0 0 512 512" xml:space="preserve" class=""><g>
<circle xmlns="http://www.w3.org/2000/svg" style="" cx="256" cy="256" r="256" fill="#ffb000" data-original="#ff4412" class=""/>
<path xmlns="http://www.w3.org/2000/svg" style="" d="M512,256c0-7.769-0.366-15.451-1.044-23.044L395,117L117,395l115.956,115.956  C240.549,511.634,248.231,512,256,512C397.385,512,512,397.385,512,256z" fill="#ff9300" data-original="#bf1600" class=""/>
<polygon xmlns="http://www.w3.org/2000/svg" style="" points="307.962,182.699 256,256 207.133,307.473 174.555,307.473 117,256 117,117 256,117 " fill="#ffffff" data-original="#fa79f4" class=""/>
<polygon xmlns="http://www.w3.org/2000/svg" style="" points="307.962,182.699 256,256 207.133,307.473 190.844,307.473 190.844,117 256,117 " fill="#ffffff" data-original="#ef61ec" class=""/>
<path xmlns="http://www.w3.org/2000/svg" style="" d="M395,117v139h-50.877c0.977-2.606,1.466-5.213,1.466-8.145c0-13.52-10.913-24.434-24.434-24.434  c-13.52,0-24.434,10.913-24.434,24.434c0,2.932,0.489,5.539,1.466,8.145H256v-42.189c-2.606,0.977-5.213,1.466-8.145,1.466  c-13.52,0-24.434-10.913-24.434-24.434c0-13.52,10.913-24.434,24.434-24.434c2.932,0,5.539,0.489,8.145,1.466V117H395z" fill="#323941" data-original="#fcbf29" class=""/>
<path xmlns="http://www.w3.org/2000/svg" style="" d="M288.578,321.156c0,13.52-10.913,24.434-24.434,24.434c-2.932,0-5.539-0.489-8.144-1.466V395h-42.189  c0.977-2.606,1.466-5.213,1.466-8.145c0-13.52-10.913-24.434-24.434-24.434c-13.52,0-24.434,10.913-24.434,24.434  c0,2.932,0.489,5.539,1.466,8.145H117V256h50.877c-0.977,2.606-1.466,5.213-1.466,8.145c0,13.52,10.913,24.434,24.434,24.434  c13.52,0,24.434-10.913,24.434-24.434c0-2.932-0.489-5.539-1.466-8.145H256v42.189c2.606-0.977,5.213-1.466,8.144-1.466  C277.665,296.723,288.578,307.636,288.578,321.156z" fill="#323941" data-original="#7c75da" class=""/>
<path xmlns="http://www.w3.org/2000/svg" style="" d="M395,190.844V256h-50.877c0.977-2.606,1.466-5.213,1.466-8.145c0-13.52-10.913-24.434-24.434-24.434  c-13.52,0-24.434,10.913-24.434,24.434c0,2.932,0.489,5.539,1.466,8.145H256v-42.189c-2.606,0.977-5.213,1.466-8.145,1.466  c-13.52,0-24.434-10.913-24.434-24.434L395,190.844L395,190.844z" fill="#323941" data-original="#fea832" class=""/>
<path xmlns="http://www.w3.org/2000/svg" style="" d="M288.578,321.156c0,13.52-10.913,24.434-24.434,24.434c-2.932,0-5.539-0.489-8.144-1.466V395h-42.189  c0.977-2.606,1.466-5.213,1.466-8.145c0-13.52-10.913-24.434-24.434-24.434v-73.844c13.52,0,24.434-10.913,24.434-24.434  c0-2.932-0.489-5.539-1.466-8.145H256v42.189c2.606-0.977,5.213-1.466,8.144-1.466C277.665,296.723,288.578,307.636,288.578,321.156  z" fill="#323941" data-original="#6e67d6" class=""/>
<g xmlns="http://www.w3.org/2000/svg">
</g>
<g xmlns="http://www.w3.org/2000/svg">
</g>
<g xmlns="http://www.w3.org/2000/svg">
</g>
<g xmlns="http://www.w3.org/2000/svg">
</g>
<g xmlns="http://www.w3.org/2000/svg">
</g>
<g xmlns="http://www.w3.org/2000/svg">
</g>
<g xmlns="http://www.w3.org/2000/svg">
</g>
<g xmlns="http://www.w3.org/2000/svg">
</g>
<g xmlns="http://www.w3.org/2000/svg">
</g>
<g xmlns="http://www.w3.org/2000/svg">
</g>
<g xmlns="http://www.w3.org/2000/svg">
</g>
<g xmlns="http://www.w3.org/2000/svg">
</g>
<g xmlns="http://www.w3.org/2000/svg">
</g>
<g xmlns="http://www.w3.org/2000/svg">
</g>
<g xmlns="http://www.w3.org/2000/svg">
</g>
</g></svg>
