<?xml version="1.0"?>
<svg xmlns="http://www.w3.org/2000/svg" xmlns:xlink="http://www.w3.org/1999/xlink" xmlns:svgjs="http://svgjs.com/svgjs" version="1.1" width="512" height="512" x="0" y="0" viewBox="0 0 512 512" style="enable-background:new 0 0 512 512" xml:space="preserve" class=""><g>
<circle xmlns="http://www.w3.org/2000/svg" style="" cx="256" cy="256" r="256" fill="#ffb000" data-original="#fc6f58" class=""/>
<path xmlns="http://www.w3.org/2000/svg" style="" d="M509.652,290.685L358.534,139.567L253.337,279.699l-104.713,88.288L290.337,509.7  C404.133,494.444,494.242,404.433,509.652,290.685z" fill="#ff9300" data-original="#f1543f" class=""/>
<circle xmlns="http://www.w3.org/2000/svg" style="" cx="256" cy="256" r="155.152" fill="#ffffff" data-original="#e6f3ff" class=""/>
<path xmlns="http://www.w3.org/2000/svg" style="" d="M256,100.848c-0.193,0-0.383,0.007-0.574,0.007v310.289c0.191,0,0.383,0.007,0.574,0.007  c85.688,0,155.152-69.463,155.152-155.152S341.688,100.848,256,100.848z" fill="#ffffff" data-original="#cfdbe6" class=""/>
<path xmlns="http://www.w3.org/2000/svg" style="" d="M256,100.848c42.844,0,77.576,34.732,77.576,77.576S298.844,256,256,256  s-77.576,34.732-77.576,77.576s34.732,77.576,77.576,77.576c85.688,0,155.152-69.463,155.152-155.152S341.688,100.848,256,100.848z" fill="#323941" data-original="#324a5e" class=""/>
<path xmlns="http://www.w3.org/2000/svg" style="" d="M256,100.848c42.844,0,77.576,34.732,77.576,77.576S298.844,256,256,256  c-0.193,0-0.383,0.014-0.574,0.014v155.122c0.193,0.002,0.383,0.014,0.574,0.014c85.688,0,155.152-69.463,155.152-155.152  S341.688,100.848,256,100.848z" fill="#323941" data-original="#2b3b4e" class=""/>
<circle xmlns="http://www.w3.org/2000/svg" style="" cx="256" cy="178.424" r="25.859" fill="#323941" data-original="#324a5e" class=""/>
<circle xmlns="http://www.w3.org/2000/svg" style="" cx="256" cy="333.576" r="25.859" fill="#ffffff" data-original="#e6f3ff" class=""/>
<path xmlns="http://www.w3.org/2000/svg" style="" d="M256,152.566c-0.195,0-0.381,0.024-0.574,0.029v51.659c0.193,0.003,0.381,0.029,0.574,0.029  c14.281,0,25.859-11.578,25.859-25.859C281.859,164.143,270.281,152.566,256,152.566z" fill="#323941" data-original="#2b3b4e" class=""/>
<path xmlns="http://www.w3.org/2000/svg" style="" d="M256,307.717c-0.195,0-0.381,0.024-0.574,0.029v51.659c0.193,0.003,0.381,0.029,0.574,0.029  c14.281,0,25.859-11.578,25.859-25.859S270.281,307.717,256,307.717z" fill="#ffffff" data-original="#cfdbe6" class=""/>
<g xmlns="http://www.w3.org/2000/svg">
</g>
<g xmlns="http://www.w3.org/2000/svg">
</g>
<g xmlns="http://www.w3.org/2000/svg">
</g>
<g xmlns="http://www.w3.org/2000/svg">
</g>
<g xmlns="http://www.w3.org/2000/svg">
</g>
<g xmlns="http://www.w3.org/2000/svg">
</g>
<g xmlns="http://www.w3.org/2000/svg">
</g>
<g xmlns="http://www.w3.org/2000/svg">
</g>
<g xmlns="http://www.w3.org/2000/svg">
</g>
<g xmlns="http://www.w3.org/2000/svg">
</g>
<g xmlns="http://www.w3.org/2000/svg">
</g>
<g xmlns="http://www.w3.org/2000/svg">
</g>
<g xmlns="http://www.w3.org/2000/svg">
</g>
<g xmlns="http://www.w3.org/2000/svg">
</g>
<g xmlns="http://www.w3.org/2000/svg">
</g>
</g></svg>
