<?xml version="1.0"?>
<svg xmlns="http://www.w3.org/2000/svg" xmlns:xlink="http://www.w3.org/1999/xlink" xmlns:svgjs="http://svgjs.com/svgjs" version="1.1" width="512" height="512" x="0" y="0" viewBox="0 0 512 512" style="enable-background:new 0 0 512 512" xml:space="preserve" class=""><g><g xmlns="http://www.w3.org/2000/svg"><g><g><g><g><g><g><circle cx="256" cy="256" fill="#ffb000" r="256" data-original="#7982ed" style="" class=""/></g></g></g></g></g></g><path d="m510.736 281.596-160.5-160.501-249.927 158.467 87.011 87.011-71.91 47.09 94.132 94.132c15.066 2.762 30.593 4.205 46.458 4.205 132.746 0 241.894-101.037 254.736-230.404z" fill="#ff9300" data-original="#4d56b2" style="" class=""/><g><g><path d="m293.701 64.561h-131.937v300.799h188.472v-244.265z" fill="#ffffff" data-original="#ffffff" style="" class=""/></g><g><path d="m350.236 121.095-56.535-56.534h-37.701v300.799h94.236z" fill="#ffffff" data-original="#e9ecf4" style="" class=""/></g><g><path d="m293.701 121.095h56.535l-56.535-56.534z" fill="#ffffff" data-original="#cdd1e0" style="" class=""/></g></g><g><path d="m115.41 233.968h281.18v179.695h-281.18z" fill="#323941" data-original="#f1cc30" style="" class=""/></g><g><path d="m256 233.968h140.59v179.695h-140.59z" fill="#323941" data-original="#ecb931" style="" class=""/></g><g><path d="m100.309 206.819h311.381v72.743h-311.381z" fill="#323941" data-original="#e9a727" style="" class=""/></g><g><path d="m256 206.819h155.691v72.743h-155.691z" fill="#323941" data-original="#e69423" style="" class=""/></g></g></g></svg>
