<?xml version="1.0"?>
<svg xmlns="http://www.w3.org/2000/svg" xmlns:xlink="http://www.w3.org/1999/xlink" xmlns:svgjs="http://svgjs.com/svgjs" version="1.1" width="512" height="512" x="0" y="0" viewBox="0 0 297 297" style="enable-background:new 0 0 512 512" xml:space="preserve" class=""><g>
<g xmlns="http://www.w3.org/2000/svg">
	<g>
		<circle style="" cx="148.5" cy="148.5" r="148.5" fill="#ffb000" data-original="#ffcd02" class=""/>
	</g>
	<path style="" d="M297,148.5c0-2.326-0.061-4.638-0.167-6.938l-53.499-53.9L53.299,224.778l69.91,70.067   c8.22,1.411,16.668,2.154,25.291,2.154C230.514,297,297,230.514,297,148.5z" fill="#ff9300" data-original="#ba9702" class=""/>
	<g>
		<path style="" d="M142.273,92.027L142.273,92.027c-2.488,1.742-5.918,1.138-7.66-1.351l-25.237-36.043    c-1.742-2.488-1.138-5.918,1.351-7.66l0,0c2.488-1.742,5.918-1.138,7.66,1.351l25.237,36.043    C145.366,86.855,144.762,90.284,142.273,92.027z" fill="#323941" data-original="#494e51" class=""/>
	</g>
	<g>
		<path style="" d="M147.607,92.027L147.607,92.027c2.488,1.742,5.918,1.138,7.66-1.351l25.237-36.043    c1.742-2.488,1.138-5.918-1.351-7.66l0,0c-2.488-1.742-5.918-1.138-7.66,1.351l-25.237,36.043    C144.515,86.855,145.119,90.284,147.607,92.027z" fill="#323941" data-original="#494e51" class=""/>
	</g>
	<g>
		<path style="" d="M66.131,230.318h164.738c9.737,0,17.631-7.894,17.631-17.631V100.131    c0-9.737-7.894-17.631-17.631-17.631H66.131c-9.737,0-17.631,7.894-17.631,17.631v112.556    C48.5,222.424,56.394,230.318,66.131,230.318z" fill="#323941" data-original="#32373b" class=""/>
	</g>
	<g>
		<path style="" d="M230.869,82.5h-85.702v147.818h85.702c9.737,0,17.631-7.894,17.631-17.631V100.131    C248.5,90.394,240.606,82.5,230.869,82.5z" fill="#323941" data-original="#23282b" class=""/>
	</g>
	<g>
		<circle style="" cx="222.5" cy="119.5" r="13.5" fill="#323941" data-original="#595155" class=""/>
	</g>
	<g>
		<circle style="" cx="222.5" cy="162" r="13.5" fill="#323941" data-original="#595155" class=""/>
	</g>
	<g>
		<path style="" d="M81.417,214.5h101.166c8.514,0,15.417-6.902,15.417-15.417v-85.348    c0-8.514-6.902-15.417-15.417-15.417H81.417C72.903,98.318,66,105.22,66,113.735v85.348C66,207.598,72.902,214.5,81.417,214.5z" fill="#ffffff" data-original="#bdc3c7" class=""/>
	</g>
	<g>
		<path style="" d="M182.583,98.318h-37.416V214.5h37.416c8.514,0,15.417-6.902,15.417-15.417v-85.348    C198,105.22,191.098,98.318,182.583,98.318z" fill="#ffffff" data-original="#9da4a8" class=""/>
	</g>
</g>
<g xmlns="http://www.w3.org/2000/svg">
</g>
<g xmlns="http://www.w3.org/2000/svg">
</g>
<g xmlns="http://www.w3.org/2000/svg">
</g>
<g xmlns="http://www.w3.org/2000/svg">
</g>
<g xmlns="http://www.w3.org/2000/svg">
</g>
<g xmlns="http://www.w3.org/2000/svg">
</g>
<g xmlns="http://www.w3.org/2000/svg">
</g>
<g xmlns="http://www.w3.org/2000/svg">
</g>
<g xmlns="http://www.w3.org/2000/svg">
</g>
<g xmlns="http://www.w3.org/2000/svg">
</g>
<g xmlns="http://www.w3.org/2000/svg">
</g>
<g xmlns="http://www.w3.org/2000/svg">
</g>
<g xmlns="http://www.w3.org/2000/svg">
</g>
<g xmlns="http://www.w3.org/2000/svg">
</g>
<g xmlns="http://www.w3.org/2000/svg">
</g>
</g></svg>
