<?xml version="1.0"?>
<svg xmlns="http://www.w3.org/2000/svg" xmlns:xlink="http://www.w3.org/1999/xlink" xmlns:svgjs="http://svgjs.com/svgjs" version="1.1" width="512" height="512" x="0" y="0" viewBox="0 0 512 512" style="enable-background:new 0 0 512 512" xml:space="preserve" class=""><g>
<circle xmlns="http://www.w3.org/2000/svg" style="" cx="256" cy="256" r="256" fill="#ffb000" data-original="#ffdc00" class=""/>
<path xmlns="http://www.w3.org/2000/svg" style="" d="M511.929,261.605L381.806,130.194L250,83.667l-61.667,19.329l-64,47.324L85,245l24.437,90.993  L75.86,383.412L197.798,505.35C216.496,509.697,235.979,512,256,512C395.511,512,508.946,400.4,511.929,261.605z" fill="#ff9300" data-original="#ffc000" class=""/>
<path xmlns="http://www.w3.org/2000/svg" style="" d="M256,434c-98.149,0-178-79.851-178-178c0-98.15,79.851-178,178-178s178,79.85,178,178  C434,354.149,354.149,434,256,434z M256,98c-87.122,0-158,70.879-158,158c0,87.122,70.878,158,158,158s158-70.878,158-158  C414,168.879,343.122,98,256,98z" fill="#ffffff" data-original="#ff6838" class=""/>
<path xmlns="http://www.w3.org/2000/svg" style="" d="M256,78c-0.111,0-0.222,0.004-0.333,0.004v20c0.111,0,0.222-0.004,0.333-0.004  c87.122,0,158,70.879,158,158c0,87.122-70.878,158-158,158c-0.111,0-0.222-0.004-0.333-0.004v20c0.111,0,0.222,0.004,0.333,0.004  c98.149,0,178-79.851,178-178C434,157.85,354.149,78,256,78z" fill="#ffffff" data-original="#ae4e32" class=""/>
<circle xmlns="http://www.w3.org/2000/svg" style="" cx="256.16" cy="103" r="40.907" fill="#323941" data-original="#008cc3" class=""/>
<g xmlns="http://www.w3.org/2000/svg">
	<path style="" d="M256.163,62.088c-0.166,0-0.33,0.011-0.496,0.013v81.79c0.166,0.002,0.33,0.013,0.496,0.013   c22.593,0,40.907-18.315,40.907-40.908S278.755,62.088,256.163,62.088z" fill="#323941" data-original="#0074a3" class=""/>
	<path style="" d="M256.163,150.32c-38.485,0-70.839,26.217-80.2,61.762h160.399   C327.001,176.536,294.648,150.32,256.163,150.32z" fill="#323941" data-original="#0074a3" class=""/>
</g>
<path xmlns="http://www.w3.org/2000/svg" style="" d="M256.163,150.32c-0.166,0-0.33,0.01-0.496,0.011v61.752h80.695  C327.001,176.536,294.648,150.32,256.163,150.32z" fill="#323941" data-original="#005c83" class=""/>
<circle xmlns="http://www.w3.org/2000/svg" style="" cx="156.06" cy="274.33" r="40.907" fill="#323941" data-original="#008cc3" class=""/>
<g xmlns="http://www.w3.org/2000/svg">
	<path style="" d="M156.06,321.65c-38.485,0-70.839,26.217-80.2,61.762h160.399   C226.898,347.867,194.545,321.65,156.06,321.65z" fill="#323941" data-original="#0074a3" class=""/>
	<circle style="" cx="364.62" cy="274.33" r="40.907" fill="#323941" data-original="#0074a3" class=""/>
</g>
<path xmlns="http://www.w3.org/2000/svg" style="" d="M364.619,321.65c-38.485,0-70.839,26.217-80.2,61.762h160.399  C435.457,347.867,403.104,321.65,364.619,321.65z" fill="#323941" data-original="#005c83" class=""/>
<g xmlns="http://www.w3.org/2000/svg">
</g>
<g xmlns="http://www.w3.org/2000/svg">
</g>
<g xmlns="http://www.w3.org/2000/svg">
</g>
<g xmlns="http://www.w3.org/2000/svg">
</g>
<g xmlns="http://www.w3.org/2000/svg">
</g>
<g xmlns="http://www.w3.org/2000/svg">
</g>
<g xmlns="http://www.w3.org/2000/svg">
</g>
<g xmlns="http://www.w3.org/2000/svg">
</g>
<g xmlns="http://www.w3.org/2000/svg">
</g>
<g xmlns="http://www.w3.org/2000/svg">
</g>
<g xmlns="http://www.w3.org/2000/svg">
</g>
<g xmlns="http://www.w3.org/2000/svg">
</g>
<g xmlns="http://www.w3.org/2000/svg">
</g>
<g xmlns="http://www.w3.org/2000/svg">
</g>
<g xmlns="http://www.w3.org/2000/svg">
</g>
</g></svg>
