<?xml version="1.0"?>
<svg xmlns="http://www.w3.org/2000/svg" xmlns:xlink="http://www.w3.org/1999/xlink" xmlns:svgjs="http://svgjs.com/svgjs" version="1.1" width="512" height="512" x="0" y="0" viewBox="0 0 512 512" style="enable-background:new 0 0 512 512" xml:space="preserve" class=""><g>
<circle xmlns="http://www.w3.org/2000/svg" style="" cx="256" cy="256" r="256" fill="#ffb000" data-original="#fee17a" class=""/>
<path xmlns="http://www.w3.org/2000/svg" style="" d="M512,256c0-14.006-1.142-27.744-3.307-41.14L380,86.167L132,420l89.707,89.707  C232.926,511.209,244.37,512,256,512C397.385,512,512,397.385,512,256z" fill="#ff9300" data-original="#fcc55f" class=""/>
<rect xmlns="http://www.w3.org/2000/svg" x="132" y="86.17" style="" width="248" height="333.83" fill="#323941" data-original="#37474f" class=""/>
<rect xmlns="http://www.w3.org/2000/svg" x="255.95" y="86.17" style="" width="124.05" height="333.83" fill="#323941" data-original="#263238" class=""/>
<rect xmlns="http://www.w3.org/2000/svg" x="152" y="104.17" style="" width="208" height="76.67" fill="#ffffff" data-original="#47d7fd" class=""/>
<rect xmlns="http://www.w3.org/2000/svg" x="255.95" y="104.17" style="" width="104.05" height="76.67" fill="#ffffff" data-original="#0fadf5" class=""/>
<g xmlns="http://www.w3.org/2000/svg">
	<rect x="318.32" y="197.17" style="" width="41.68" height="39.651" fill="#ffffff" data-original="#ced7db" class=""/>
	<rect x="262.88" y="197.17" style="" width="41.68" height="39.651" fill="#ffffff" data-original="#ced7db" class=""/>
</g>
<g xmlns="http://www.w3.org/2000/svg">
	<rect x="207.44" y="197.17" style="" width="41.68" height="39.651" fill="#ffffff" data-original="#ebeef0" class=""/>
	<rect x="152" y="197.17" style="" width="41.68" height="39.651" fill="#ffffff" data-original="#ebeef0" class=""/>
</g>
<g xmlns="http://www.w3.org/2000/svg">
	<rect x="318.32" y="251.33" style="" width="41.68" height="39.651" fill="#ffffff" data-original="#ced7db" class=""/>
	<rect x="262.88" y="251.33" style="" width="41.68" height="39.651" fill="#ffffff" data-original="#ced7db" class=""/>
</g>
<g xmlns="http://www.w3.org/2000/svg">
	<rect x="207.44" y="251.33" style="" width="41.68" height="39.651" fill="#ffffff" data-original="#ebeef0" class=""/>
	<rect x="152" y="251.33" style="" width="41.68" height="39.651" fill="#ffffff" data-original="#ebeef0" class=""/>
</g>
<rect xmlns="http://www.w3.org/2000/svg" x="262.88" y="305.5" style="" width="41.68" height="39.651" fill="#ffffff" data-original="#ced7db" class=""/>
<g xmlns="http://www.w3.org/2000/svg">
	<rect x="207.44" y="305.5" style="" width="41.68" height="39.651" fill="#ffffff" data-original="#ebeef0" class=""/>
	<rect x="152" y="305.5" style="" width="41.68" height="39.651" fill="#ffffff" data-original="#ebeef0" class=""/>
</g>
<rect xmlns="http://www.w3.org/2000/svg" x="318.32" y="305.5" style="" width="41.68" height="93.82" fill="#ffffff" data-original="#00bea5" class=""/>
<rect xmlns="http://www.w3.org/2000/svg" x="262.88" y="359.67" style="" width="41.68" height="39.651" fill="#ffffff" data-original="#ced7db" class=""/>
<g xmlns="http://www.w3.org/2000/svg">
	<rect x="207.44" y="359.67" style="" width="41.68" height="39.651" fill="#ffffff" data-original="#ebeef0" class=""/>
	<rect x="152" y="359.67" style="" width="41.68" height="39.651" fill="#ffffff" data-original="#ebeef0" class=""/>
</g>
<g xmlns="http://www.w3.org/2000/svg">
</g>
<g xmlns="http://www.w3.org/2000/svg">
</g>
<g xmlns="http://www.w3.org/2000/svg">
</g>
<g xmlns="http://www.w3.org/2000/svg">
</g>
<g xmlns="http://www.w3.org/2000/svg">
</g>
<g xmlns="http://www.w3.org/2000/svg">
</g>
<g xmlns="http://www.w3.org/2000/svg">
</g>
<g xmlns="http://www.w3.org/2000/svg">
</g>
<g xmlns="http://www.w3.org/2000/svg">
</g>
<g xmlns="http://www.w3.org/2000/svg">
</g>
<g xmlns="http://www.w3.org/2000/svg">
</g>
<g xmlns="http://www.w3.org/2000/svg">
</g>
<g xmlns="http://www.w3.org/2000/svg">
</g>
<g xmlns="http://www.w3.org/2000/svg">
</g>
<g xmlns="http://www.w3.org/2000/svg">
</g>
</g></svg>
