<svg height="512pt" viewBox="0 0 512 512" width="512pt" xmlns="http://www.w3.org/2000/svg">
	<path d="m512 256c0 141.386719-114.613281 256-256 256s-256-114.613281-256-256 114.613281-256 256-256 256 114.613281 256 256zm0 0" fill="#ffb300"/>
	<path d="m510.785156 280.960938-173.097656-173.101563c.390625.394531-.023438 3.367187-1.007812 8.128906l-38.992188-38.988281-44.234375 17.257812 69.746094 69.75-200.199219 52.992188 136.472656 136.472656-136.472656 73.527344 79.351562 79.351562c17.300782 3.691407 35.246094 5.648438 53.648438 5.648438 132.964844 0 242.238281-101.371094 254.785156-231.039062zm0 0" fill="#ff9800"/>
	<path d="m337.6875 200.941406h-18v-81.859375l-45.960938-22.53125 7.921876-16.160156 56.039062 27.46875zm0 0" fill="#555a66"/>
	<path d="m276.433594 107.714844-17.785156-8.71875c-6.226563-3.050782-8.800782-10.574219-5.75-16.800782l5.78125-11.785156c3.050781-6.226562 10.570312-8.800781 16.796874-5.746094l17.789063 8.71875c6.222656 3.050782 8.796875 10.574219 5.746094 16.800782l-5.777344 11.785156c-3.054687 6.226562-10.574219 8.800781-16.800781 5.746094zm0 0" fill="#414952"/>
	<path d="m293.261719 73.382812-17.785157-8.722656c-6.226562-3.050781-13.746093-.476562-16.800781 5.75l-3.152343 6.429688v19.988281c.902343.855469 1.949218 1.59375 3.125 2.167969l17.785156 8.71875c6.226562 3.050781 13.746094.480468 16.800781-5.746094l5.777344-11.789062c3.050781-6.226563.476562-13.746094-5.75-16.796876zm0 0" fill="#333940"/>
	<path d="m147 200.941406h218v193.253906h-218zm0 0" fill="#555a66"/>
	<path d="m255.523438 200.941406h109.476562v193.253906h-109.476562zm0 0" fill="#414952"/>
	<path d="m123 161.941406h266v55.058594h-266zm0 0" fill="#414952"/>
	<path d="m255.523438 161.941406h133.476562v55.058594h-133.476562zm0 0" fill="#333940"/>
	<g fill="#636978">
		<path d="m135.277344 344.484375h241.445312v49.976563h-241.445312zm0 0"/>
		<path d="m135.277344 344.484375h120.246094v49.976563h-120.246094zm0 0"/>
		<path d="m255.523438 344.484375h121.199218v49.976563h-121.199218zm0 0"/>
	</g>
	<path d="m123 371.941406h266v55.058594h-266zm0 0" fill="#414952"/>
	<path d="m255.523438 371.941406h133.476562v55.058594h-133.476562zm0 0" fill="#333940"/>
</svg>