<?xml version="1.0"?>
<svg xmlns="http://www.w3.org/2000/svg" xmlns:xlink="http://www.w3.org/1999/xlink" version="1.1" id="Layer_1" x="0px" y="0px" viewBox="0 0 512 512" style="enable-background:new 0 0 512 512;" xml:space="preserve" width="512px" height="512px" class=""><g><g>
	<circle style="fill:#FFB300" cx="256" cy="256" r="256" data-original="#FFB64C" class="" data-old_color="#FFB64C"/>
	<path style="fill:#FF9800" d="M339.194,97.334l-41.958,41.958l-11.708-11.708l-132.93,132.93l222.26,222.259   c77.703-40.81,131.862-120.369,136.772-213.005L339.194,97.334z" data-original="#FF9100" class="" data-old_color="#FF9100"/>
	<path style="fill:#FF9800" d="M155.892,271.073l-42.339,42.339l30.682,30.683L85.47,402.86l98.997,98.998   C207.17,508.452,231.169,512,256,512c40.983,0,79.707-9.646,114.052-26.768L155.892,271.073z" data-original="#FF9100" class="" data-old_color="#FF9100"/>
	<g>
		<g id="debate_4_">
			<g>
				<path style="fill:#FF637B;" d="M135.437,322.923c-16.528,0-29.974-13.446-29.974-29.974s13.446-29.974,29.974-29.974      s29.974,13.446,29.974,29.974S151.965,322.923,135.437,322.923z" data-original="#FF637B" class=""/>
			</g>
			<g>
				<path style="fill:#FF637B;" d="M185.394,402.854H85.48V372.88c0-27.546,22.41-49.957,49.957-49.957s49.957,22.411,49.957,49.957      V402.854z" data-original="#FF637B" class=""/>
			</g>
			<g>
				<path style="fill:#4BB9EC" d="M376.563,322.923c-16.528,0-29.974-13.446-29.974-29.974s13.446-29.974,29.974-29.974      c16.528,0,29.974,13.446,29.974,29.974S393.091,322.923,376.563,322.923z" data-original="#4BB9EC" class="active-path"/>
			</g>
			<g>
				<path style="fill:#4BB9EC" d="M426.52,402.854h-99.914V372.88c0-27.546,22.41-49.957,49.957-49.957      s49.957,22.411,49.957,49.957V402.854z" data-original="#4BB9EC" class="active-path"/>
			</g>
			<g>
				<path style="fill:#FFFFFF" d="M256,262.974c-24.144,0-47.668-7.3-66.943-20.669l-36.506,18.317l7.52-48.247      c-9.593-15.227-14.642-32.194-14.642-49.316c0-55.093,49.602-99.914,110.571-99.914s110.571,44.821,110.571,99.914      c0,17.122-5.05,34.089-14.642,49.316l7.52,48.247l-36.506-18.317C303.668,255.674,280.144,262.974,256,262.974z" data-original="#FFF5F5" class="" data-old_color="#FFF5F5"/>
			</g>
			<g>
				<g>
					<polygon style="fill:#FFB300" points="254.576,218.158 237.441,207.877 258.336,173.052 218.37,173.052 257.424,107.963        274.559,118.244 253.664,153.069 293.63,153.069      " data-original="#FFB64C" class="" data-old_color="#FFB64C"/>
				</g>
			</g>
		</g>
		<g id="debate_1_">
			<path style="fill:#E9EDF5" d="M322.943,242.305l36.506,18.317l-7.52-48.247c9.593-15.227,14.642-32.194,14.642-49.316     c0-55.093-49.602-99.914-110.571-99.914v199.828C280.144,262.974,303.668,255.674,322.943,242.305z" data-original="#EFE2DD" class="" data-old_color="#EFE2DD"/>
			<g>
				<g>
					<polygon style="fill:#FF9800" points="256,215.785 293.63,153.069 256,153.069 256,173.052 258.336,173.052 256,176.945             " data-original="#FF9100" class="" data-old_color="#FF9100"/>
					<polygon style="fill:#FF9800" points="256,149.176 274.559,118.244 257.424,107.963 256,110.336      " data-original="#FF9100" class="" data-old_color="#FF9100"/>
				</g>
			</g>
			<path style="fill:#0095FF;" d="M426.52,402.854V372.88c0-27.546-22.41-49.957-49.957-49.957v79.931H426.52z" data-original="#0095FF" class=""/>
			<path style="fill:#0095FF;" d="M406.537,292.948c0-16.528-13.446-29.974-29.974-29.974v59.948     C393.091,322.923,406.537,309.476,406.537,292.948z" data-original="#0095FF" class=""/>
			<path style="fill:#E63950" d="M185.394,402.854V372.88c0-27.546-22.41-49.957-49.957-49.957v79.931H185.394z" data-original="#E63950" class="" data-old_color="#E63950"/>
			<path style="fill:#E63950" d="M165.411,292.948c0-16.528-13.446-29.974-29.974-29.974v59.948     C151.965,322.923,165.411,309.476,165.411,292.948z" data-original="#E63950" class="" data-old_color="#E63950"/>
		</g>
	</g>
</g></g> </svg>
