<?xml version="1.0"?>
<svg xmlns="http://www.w3.org/2000/svg" height="512" viewBox="0 0 512 512" width="512" class=""><g><path d="m512 256c0 141.386719-114.613281 256-256 256s-256-114.613281-256-256 114.613281-256 256-256 256 114.613281 256 256zm0 0" fill="#fbf24a" data-original="#FBF24A" class="" style="fill:#FFB300" data-old_color="#fbf24a"/><path d="m260.738281 511.941406c139.195313-2.53125 251.261719-116.140625 251.261719-255.941406 0-7.019531-.292969-13.972656-.847656-20.847656l-117.152344-117.152344-276 64.6875 24.257812 24 15.128907 30.925781-39.386719 10.398438 30.289062 30.199219-6.03125 9.59375 31.007813 30.179687-55.265625 35.679687 31.214844 31.121094-6.957032 8.675782zm0 0" fill="#fbd141" data-original="#FBD141" class="" style="fill:#FF9800" data-old_color="#fbd141"/><path d="m394 198.320312h-138l-26.953125 44.742188 26.953125 44.742188h138zm0 0" fill="#fe6192" data-original="#FE6192" class="" style="fill:#E63950" data-old_color="#fe6192"/><path d="m142.257812 198.320312v24.160157l-24.257812 15.632812v9.898438l24.257812 15.632812v24.160157h113.742188v-89.484376zm0 0" fill="#fd8777" data-original="#FD8777" class="" style="fill:#FF637B" data-old_color="#fd8777"/><path d="m394 304.515625h-138l-26.953125 44.742187 26.953125 44.742188h138zm0 0" fill="#fe6192" data-original="#FE6192" class="" style="fill:#E63950" data-old_color="#fe6192"/><path d="m142.257812 328.136719-24.257812 15.632812v9.894531l24.257812 15.636719v24.160157h113.742188v-89.484376h-113.742188zm0 0" fill="#fd8777" data-original="#FD8777" class="" style="fill:#FF637B" data-old_color="#fd8777"/><path d="m223.65625 234.976562h16.171875v16.171876h-16.171875zm0 0" fill="#fff" data-original="#FFF" class="active-path" data-old_color="#fff" style="fill:#FFFFFF"/><path d="m256 234.976562h16.171875v16.171876h-16.171875zm0 0" fill="#ffceeb" data-original="#FFCEEB" class="" style="fill:#CDD2E1" data-old_color="#ffceeb"/><path d="m288.34375 234.976562h16.171875v16.171876h-16.171875zm0 0" fill="#ffceeb" data-original="#FFCEEB" class="" style="fill:#CDD2E1" data-old_color="#ffceeb"/><path d="m223.65625 340.632812h16.171875v16.171876h-16.171875zm0 0" fill="#fff" data-original="#FFF" class="active-path" data-old_color="#fff" style="fill:#FFFFFF"/><path d="m256 340.632812h16.171875v16.171876h-16.171875zm0 0" fill="#ffceeb" data-original="#FFCEEB" class="" style="fill:#CDD2E1" data-old_color="#ffceeb"/><path d="m288.34375 340.632812h16.171875v16.171876h-16.171875zm0 0" fill="#ffceeb" data-original="#FFCEEB" class="" style="fill:#CDD2E1" data-old_color="#ffceeb"/><path d="m321.226562 118-26.953124 32.34375 26.953124 32.34375h72.773438v-64.6875zm0 0" fill="#ff3cad" data-original="#FF3CAD" class="" style="fill:#E63950" data-old_color="#ff3cad"/><path d="m321.226562 118h-65.226562l-26.953125 32.34375 26.953125 32.34375h65.226562zm0 0" fill="#636363" data-original="#636363" class="" style="fill:#0095FF" data-old_color="#636363"/><path d="m118 118h138v64.6875h-138zm0 0" fill="#828282" data-original="#828282" class="" style="fill:#4BB9EC" data-old_color="#828282"/><path d="m292.925781 142.257812h-36.925781l-5.390625 8.085938 5.390625 8.085938h36.925781zm0 0" fill="#b2f5ff" data-original="#B2F5FF" class="" style="fill:#E9EDF5" data-old_color="#b2f5ff"/><path d="m146.300781 142.257812h109.699219v16.171876h-109.699219zm0 0" fill="#fff" data-original="#FFF" class="active-path" data-old_color="#fff" style="fill:#FFFFFF"/></g> </svg>
