<?xml version="1.0"?>
<svg xmlns="http://www.w3.org/2000/svg" xmlns:xlink="http://www.w3.org/1999/xlink" version="1.1" id="Layer_1" x="0px" y="0px" viewBox="0 0 512 512" style="enable-background:new 0 0 512 512;" xml:space="preserve" width="512" height="512" class=""><g><circle style="fill:#FFB300" cx="256" cy="256" r="256" data-original="#324A5E" class="" data-old_color="#324A5E"/><path style="fill:#FF9800" d="M169.805,322.37l-37.926,37.926l150.373,150.373c117.331-11.952,211.203-103.143,227.29-219.201  L369.778,151.704L207.401,189.3l-37.597-37.597l-37.926,37.926l74.1,74.1v9.481l-36.174-36.174l-37.926,37.926l74.1,74.1v9.481  L169.805,322.37z" data-original="#2B3B4E" class="" data-old_color="#2B3B4E"/><g>
	<rect x="199.111" y="151.704" style="fill:#E63950" width="170.667" height="37.926" data-original="#B5F1F4" class="" data-old_color="#B5F1F4"/>
	<rect x="199.111" y="237.037" style="fill:#E63950" width="170.667" height="37.926" data-original="#B5F1F4" class="" data-old_color="#B5F1F4"/>
	<rect x="199.111" y="322.37" style="fill:#E63950" width="170.667" height="37.926" data-original="#B5F1F4" class="" data-old_color="#B5F1F4"/>
</g><g>
	<rect x="255.431" y="151.704" style="fill:#0095FF" width="114.347" height="37.926" data-original="#84DBFF" class="" data-old_color="#84DBFF"/>
	<rect x="255.431" y="237.037" style="fill:#0095FF" width="114.347" height="37.926" data-original="#84DBFF" class="" data-old_color="#84DBFF"/>
	<rect x="255.431" y="322.37" style="fill:#0095FF" width="114.347" height="37.926" data-original="#84DBFF" class="" data-old_color="#84DBFF"/>
</g><g>
	<rect x="131.879" y="151.704" style="fill:#E63950" width="37.926" height="37.926" data-original="#B5F1F4" class="" data-old_color="#B5F1F4"/>
	<rect x="131.879" y="237.037" style="fill:#E63950" width="37.926" height="37.926" data-original="#B5F1F4" class="" data-old_color="#B5F1F4"/>
</g><rect x="131.879" y="322.37" style="fill:#E63950" width="37.926" height="37.926" data-original="#FFD15D" class="active-path" data-old_color="#FFD15D"/></g> </svg>
