<?xml version="1.0"?>
<svg xmlns="http://www.w3.org/2000/svg" xmlns:xlink="http://www.w3.org/1999/xlink" version="1.1" id="Capa_1" x="0px" y="0px" viewBox="0 0 512 512" style="enable-background:new 0 0 512 512;" xml:space="preserve" width="512" height="512" class=""><g><circle style="fill:#FFB300" cx="256" cy="256" r="256" data-original="#D6283B" class="" data-old_color="#D6283B"/><path style="fill:#FF9800" d="M275.147,511.288C407.589,501.495,512,390.944,512,256c0-3.186-0.079-6.354-0.194-9.511  L344.507,79.19l-177.015,92.152l65.063,65.063l-58.771,173.521L275.147,511.288z" data-original="#C20231" class="" data-old_color="#C20231"/><polygon style="fill:#E63950" points="344.507,171.342 256,225.153 167.493,171.342 167.493,79.19 344.507,79.19 " data-original="#303F9E" class="" data-old_color="#303F9E"/><polygon style="fill:#E63950" points="255.952,79.19 255.952,225.124 256,225.153 344.507,171.342 344.507,79.19 " data-original="#1A237E" class="" data-old_color="#1A237E"/><polygon style="fill:#E63950" points="205.333,194.348 256,225.153 306.667,194.348 306.667,79.19 205.333,79.19 " data-original="#536DFD" class="" data-old_color="#536DFD"/><polygon style="fill:#E63950" points="256,225.153 306.667,194.348 306.667,79.19 255.952,79.19 " data-original="#304FFD" class="active-path" data-old_color="#304FFD"/><circle style="fill:#0095FF" cx="256" cy="331.87" r="113.37" data-original="#FED640" class="" data-old_color="#FED640"/><path style="fill:#0095FF" d="M256,445.239c62.611,0,113.368-50.757,113.368-113.368S318.612,218.503,256,218.503L256,445.239  L256,445.239z" data-original="#FEC300" class="" data-old_color="#FEC300"/><circle style="fill:#FFFFFF" cx="256" cy="331.87" r="78.05" data-original="#FE8E00" class="" data-old_color="#FE8E00"/><path style="fill:#FFFFFF" d="M256,409.926c43.108,0,78.054-34.946,78.054-78.054S299.108,253.818,256,253.818V409.926z" data-original="#FE6F00" class="" data-old_color="#FE6F00"/><polygon style="fill:#FF637B" points="256,266.244 275.158,305.061 317.995,311.286 286.997,341.501 294.315,384.165 256,364.022   217.685,384.165 225.003,341.501 194.005,311.286 236.843,305.061 " data-original="#FEFE00" class="" data-old_color="#FEFE00"/><polygon style="fill:#E63950" points="256,364.022 294.315,384.165 286.998,341.501 317.995,311.286 275.157,305.061 256,266.244   " data-original="#FED500" class="" data-old_color="#FED500"/></g> </svg>
