<?xml version="1.0"?>
<svg xmlns="http://www.w3.org/2000/svg" xmlns:xlink="http://www.w3.org/1999/xlink" version="1.1" id="Capa_1" x="0px" y="0px" viewBox="0 0 512 512" style="enable-background:new 0 0 512 512;" xml:space="preserve" width="512px" height="512px" class=""><g><circle style="fill:#FFB300" cx="256" cy="256" r="256" data-original="#77DD00" class="" data-old_color="#77DD00"/><path style="fill:#FF9800" d="M512,256c0-7.352-0.328-14.626-0.935-21.821L405.56,128.675L176.782,373.669l132.715,132.715  C425.199,481.783,512,379.035,512,256z" data-original="#66BB00" class="" data-old_color="#66BB00"/><path style="fill:#414952" d="M256,86l-149.56,42.675v74.98c0,96.316,57.232,183.062,145.572,220.95L256,426.2l3.989-1.596  c88.34-37.888,145.572-124.634,145.572-220.95v-74.98L256,86z" data-original="#E7E7E7" class="" data-old_color="#E7E7E7"/><path style="fill:#333940" d="M405.56,128.675v74.98c0,96.316-57.232,183.062-145.572,220.95L256,426.2V86L405.56,128.675z" data-original="#D3D3D8" class="" data-old_color="#D3D3D8"/><path style="fill:#FFFFFF" d="M256,127.478l-109.678,31.308v44.868c0,73.782,40.282,141.184,104.892,176.281l4.786,2.592  l4.786-2.592c64.61-35.097,104.892-102.499,104.892-176.281v-44.868L256,127.478z" data-original="#00ABE9" class="" data-old_color="#00ABE9"/><path style="fill:#E9EDF5" d="M365.678,158.787v44.868c0,73.782-40.282,141.184-104.892,176.281L256,382.528v-255.05  L365.678,158.787z" data-original="#0095FF" class="active-path" data-old_color="#0095FF"/></g> </svg>
